<svg class="svg-icon" style="width: 1em;height: 1em;vertical-align: middle;fill: currentColor;overflow: hidden;" viewBox="0 0 1024 1024" version="1.1" xmlns="http://www.w3.org/2000/svg"><path d="M294.418 42.67c-58.998 0-111.34 157.808-111.34 157.808h222.712c0.002 0-52.374-157.808-111.372-157.808z" fill="#CCD1D9" /><path d="M405.354 327.13V170.666H192.016v157.622C79.674 364.412 0.02 488.846 0.02 633.904c0 124.152 58.374 330.336 145.652 390.082h309.68c87.248-59.746 145.62-265.93 145.62-390.082 0-146.62-81.37-271.554-195.618-306.774z" fill="#FC6E51" /><path d="M405.354 327.13V170.666h-42.686v156.464c114.248 35.218 195.652 160.152 195.652 306.774 0 124.152-58.374 330.336-145.652 390.082h42.686c87.248-59.746 145.62-265.93 145.62-390.082-0.002-146.62-81.372-271.554-195.62-306.774z" fill="#FFFFFF" opacity=".2" /><path d="M948.278 597.31h-191.372c-81.184 94.842-75.654 227.558-75.654 227.558s8 113.464 171.34 113.778c163.306-0.312 171.306-113.778 171.306-113.778s5.562-132.716-75.62-227.558z" fill="#E6E9ED" /><path d="M831.248 915.99h42.686v86.654h-42.686z" fill="#CCD1D9" /><path d="M937.902 981.3h-170.652c-11.782 0-21.344 9.562-21.344 21.344s9.562 21.342 21.344 21.342h170.652c11.812 0 21.344-9.56 21.344-21.342s-9.532-21.344-21.344-21.344z" fill="#E6E9ED" /><path d="M681.252 824.87s8 113.464 171.34 113.778c163.306-0.312 171.306-113.778 171.306-113.778s0.968-23.094-3.782-56.876H685.064c-4.75 33.782-3.812 56.876-3.812 56.876z" fill="#FC6E51" /><path d="M426.666 85.324c0 23.562-19.092 42.688-42.654 42.688H213.36c-23.562 0-42.686-19.124-42.686-42.688V42.67C170.674 19.108 189.798 0.014 213.36 0.014h170.652c23.562 0 42.654 19.094 42.654 42.656v42.654z" fill="#E6E9ED" /><path d="M426.666 597.31S413.854 512 298.67 512c-115.154 0-128.028 85.31-128.028 85.31v255.994h256.024V597.31z" fill="#434A54" /><path d="M405.354 170.666H192.016c-11.782 0-21.344 9.562-21.344 21.344s9.562 21.312 21.344 21.312h213.338c11.782 0 21.312-9.532 21.312-21.312s-9.532-21.344-21.312-21.344z" fill="#E9573F" /><path d="M948.278 597.31h-42.656c81.154 94.842 75.624 227.558 75.624 227.558s-7.312 103.372-149.996 113.058c6.812 0.438 13.906 0.688 21.344 0.718 163.306-0.312 171.306-113.778 171.306-113.778s5.56-132.714-75.622-227.556z" fill="#FFFFFF" opacity=".2" /></svg>