<svg class="svg-icon" style="width: 1em;height: 1em;vertical-align: middle;fill: currentColor;overflow: hidden;" viewBox="0 0 1024 1024" version="1.1" xmlns="http://www.w3.org/2000/svg"><path d="M771.355106 975.811765h-133.20433c-32.731859 0-59.331765-26.410165-59.882917-59.199247L578.258824 915.576471V556.447624l0.060235-1.593224c0.406588-7.559529 2.900329-31.861459 10.432753-57.048847l0.400564-1.325177c8.6528-28.307576 62.6176-158.485082 66.966589-184.009788l0.313223-1.906447c2.523859-15.956329 4.333929-41.661741 5.421177-77.122259l0.256-8.87567V51.2h85.287153v173.366212l0.252988 8.87567c1.135435 36.906165 3.047906 63.247059 5.737412 79.028706 4.348988 25.524706 58.313788 155.702212 66.966588 184.006777 8.6528 28.304565 10.893553 55.841129 10.893553 60.187106V915.576471c0 33.267953-26.813741 60.235294-59.891953 60.235294h-133.20433 133.20433z" fill="#009042" /><path d="M747.399529 51.2v173.366212l0.249977 8.87567c1.135435 36.906165 3.047906 63.247059 5.737412 79.028706 4.348988 25.524706 58.313788 155.702212 66.966588 184.006777 8.523294 27.870871 10.824282 54.994824 10.890541 59.970259L831.247059 915.576471c0 32.918588-26.259576 59.672094-58.86193 60.226258l-1.030023 0.009036h-36.141177l1.030024-0.009036C768.846306 975.248565 795.105882 948.498071 795.105882 915.576471V556.447624c-0.069271-4.975435-2.373271-32.099388-10.893553-59.970259-8.6528-28.304565-62.6176-158.479059-66.966588-184.006777-2.689506-15.781647-4.601976-42.122541-5.737412-79.028706l-0.252988-8.87567V51.2h36.141177z" fill="#056639" /><path d="M638.500141 913.600753L638.494118 600.256753l156.611764 0.120471V912.564706l-156.605741 1.036047z" fill="#CF0000" /><path d="M638.500141 668.611765l-0.006023-18.070589 156.611764 0.006024v18.004329l-156.605741 0.060236z" fill="#694B4B" /><path d="M795.105882 913.600753v-313.344l36.141177 0.120471V912.564706l-36.141177 1.036047z" fill="#9E0000" /><path d="M662.588235 51.2h48.188236v180.705882h-48.188236z" fill="#694B4B" /><path d="M710.776471 51.2h36.141176v180.705882h-36.141176zM795.105882 668.611765v-18.070589l36.141177 0.006024v18.004329l-36.141177 0.060236z" fill="#4C3030" /><path d="M686.688376 862.343529l-0.006023-168.658823 108.423529 0.060235v168.0384l-108.417506 0.560188z" fill="#FACB62" /><path d="M795.105882 862.343529v-168.658823l36.141177 0.060235v168.0384l-36.141177 0.560188z" fill="#E8A44E" /><path d="M668.129882 57.223529h73.246118v167.342683l0.252988 9.047341 0.141553 4.412235c1.135435 34.162447 2.963576 58.949271 5.517553 74.496l0.159624 0.960753c1.861271 10.914635 10.920659 36.601976 28.659953 82.92593l25.970447 67.352094 3.183435 8.387764 3.255718 8.707012c2.939482 7.951059 4.933271 13.649318 6.074729 17.383906 3.758682 12.291012 6.574682 25.374118 8.496188 38.207247l0.421647 2.942494 0.262024 1.924518c0.918588 6.972235 1.451671 13.019859 1.45167 15.350965V915.576471c0 29.948988-24.124235 54.211765-53.868423 54.211764h-133.20433v12.047059h133.20433v-12.047059h-133.20433c-8.029365 0-8.029365 12.047059 0 12.047059h133.20433c8.029365 0 8.029365-12.047059 0-12.047059h-133.20433c-29.394824 0-53.365459-23.723671-53.859388-53.278117l-0.009035-0.984847V556.447624l0.060235-1.355295c0.722824-13.522824 4.252612-35.740612 10.179765-55.561035l0.804141-2.617223 0.990871-3.008753c2.957553-8.758212 8.535341-23.567059 18.169976-48.507483a6.023529 6.023529 0 1 0-11.239906-4.339953l-7.514353 19.564424c-6.692141 17.546541-10.426729 27.828706-12.342211 34.093176l-0.406589 1.346259c-6.222306 20.814306-9.899671 43.959718-10.676706 58.4704l-0.066258 1.680565L572.235294 915.576471l0.009035 1.087247c0.605365 36.159247 29.918871 65.171576 65.906447 65.171576h133.20433c36.412235 0 65.915482-29.671906 65.915482-66.258823V556.664471l-0.021082-1.454683c-0.316235-11.788047-4.264659-37.460329-10.712847-59.090823l-0.810165-2.641318c-1.505882-4.752565-4.026729-11.806118-7.710118-21.645553l-9.854494-25.816847-18.751247-48.561694-7.258353-19.022306c-13.703529-36.186353-21.127529-57.630118-22.759906-66.593129l-0.373458-2.243765-0.3072-2.005835c-2.313035-15.772612-4.002635-40.586541-5.041694-74.330353l-0.252989-8.863624L753.423059 51.2a6.023529 6.023529 0 0 0-6.02353-6.023529h-85.287153a6.023529 6.023529 0 0 0-6.023529 6.023529v173.366212l-0.249976 8.704-0.210824 6.490353c-1.099294 31.870494-2.822024 55.1936-5.141082 69.863906l-0.3072 1.870305c-1.406494 8.240188-8.722071 29.581553-21.407624 63.204895a6.023529 6.023529 0 0 0 11.270024 4.252611l3.198494-8.520282 3.514729-9.478024c8.707012-23.699576 13.787859-39.168 15.218447-46.983529l0.406589-2.430494 0.316235-2.087153 0.319247-2.237741c2.243765-16.414118 3.855059-40.899765 4.864-73.586447l0.252988-8.893741V57.223529z" fill="#4C3030" /><path d="M334.305882 969.788235c64.481882 0 117.284141-6.4512 120.470589-16.347859v-14.631152C454.776471 929.304094 400.838776 921.6 334.305882 921.6s-120.470588 7.704094-120.470588 17.209224v14.631152c3.023812 9.878588 55.877271 16.347859 120.470588 16.347859z" fill="#FFFFFF" /><path d="M334.305882 969.788235c64.481882 0 117.284141-6.4512 120.470589-16.347859v-14.631152c0-9.351529-52.398682-10.944753-117.458824-11.185695-0.048188 0 0.885459 4.186353 7.7824 5.186259 6.896941 0.996894 80.456282 5.891012 83.968 11.402541C432.465318 949.537129 355.466541 951.717647 334.305882 951.717647c-47.329882 0-114.356706-6.023529-120.470588-12.908423v14.631152c3.023812 9.878588 55.877271 16.347859 120.470588 16.347859z" fill="#F9E5E5" /><path d="M319.247059 755.952941h18.070588v171.670588h-18.070588z" fill="#FFFFFF" /><path d="M337.317647 755.952941h12.047059v171.670588h-12.047059z" fill="#F9E5E5" /><path d="M243.952941 451.764706h180.705883c40.155859 75.233882 60.235294 133.210353 60.235294 173.929412 0 66.267859-50.148894 121.786729-116.076424 128.499953a340.341459 340.341459 0 0 1-69.023623 0C233.866541 747.477835 183.717647 691.961976 183.717647 625.694118c0-56.660329 20.079435-114.6368 60.235294-173.929412z" fill="#FFFFFF" /><path d="M325.059765 755.826447l0.641506 0.018071z m-3.897224-0.129506l0.234918 0.009035z m-4.379106-0.195765l0.313224 0.015059z m-3.999623-0.231905l0.165647 0.012047z m-4.38513-0.3072c0.846306 0.066259 1.692612 0.126494 2.538918 0.183717l-2.364235-0.168659-0.08433-0.009035zM424.658824 451.764706c39.719153 74.414682 59.795576 131.945412 60.22927 172.5952l0.006024 1.334212-6.671059 4.9152c-13.640282 8.812424-32.039153 14.022776-55.1936 15.628047l-0.054212 0.340329c1.005929-6.174118 1.572141-12.483765 1.668518-18.898823l0.015059-1.984753-0.006024-1.334212c-0.427671-40.198024-20.064376-96.903529-58.910118-170.11953L364.423529 451.764706h60.235295z" fill="#F9E5E5" /><path d="M484.894118 625.694118c0 66.267859-50.148894 121.786729-116.076424 128.499953a340.341459 340.341459 0 0 1-69.023623 0C233.866541 747.477835 183.717647 691.961976 183.717647 625.694118c14.543812-14.055906 38.713224-21.082353 72.511247-21.082353 50.694024 0 97.617318 42.164706 150.588235 42.164706 35.309929 0 61.3376-7.026447 78.076989-21.082353z" fill="#C40000" /><path d="M368.817694 754.194071c-10.068329 1.024-20.133647 1.602259-30.198965 1.731764L334.305882 755.952941c-1.698635 0-3.397271-0.012047-5.092894-0.039153l-4.734494-0.1024-1.493835-0.048188-2.671435-0.099388-3.855059-0.180706-3.77073-0.219859-1.746823-0.117459c-1.632376-0.111435-3.264753-0.234918-4.894118-0.370447l-1.936565-0.168659-4.315858-0.412611C234.529129 747.550118 184.723576 693.067294 183.732706 627.681882L183.717647 625.694118h5.135059c14.227576 48.865882 56.609129 86.160565 109.342118 92.187106l1.599247 0.17167 4.315858 0.412612c10.065318 0.897506 20.130635 1.346259 30.195953 1.346259 11.504941 0 36.3008-2.138353 53.395577-17.124894 17.091765-14.986541 31.162729-30.448941 35.328-56.449506 23.154447-1.605271 41.553318-6.815624 55.1936-15.631059L484.894118 625.694118c0 66.267859-50.148894 121.786729-116.076424 128.499953z" fill="#9E0000" /><path d="M424.658824 445.741176a6.023529 6.023529 0 0 1 5.312752 3.186448c40.137788 75.197741 60.494306 133.5296 60.940048 175.399152l0.006023 1.367342c0 69.360941-52.489035 127.466918-121.491576 134.493364-4.677271 0.475859-9.357553 0.858353-14.034824 1.144471v154.503529l2.641318 0.072283c26.322824 0.746918 50.103718 2.722635 67.85807 5.616941 22.356329 3.644235 33.969694 7.872753 34.864189 16.396047l0.036141 0.572235 0.009035 0.316236v14.631152a6.023529 6.023529 0 0 1-0.289129 1.846212c-2.418447 7.508329-14.179388 11.806118-35.358118 15.043765l-2.698541 0.397553-4.141177 0.572235c-22.139482 2.909365-51.799341 4.511624-84.025223 4.511624l-5.797647-0.018071c-67.457506-0.406588-114.829553-6.842729-120.220612-20.028235l-0.105412-0.298165a6.023529 6.023529 0 0 1-0.352376-2.026918v-14.631152c0-8.357647 9.890635-12.760847 29.361694-16.329789l2.379294-0.424659 3.746635-0.623435c18.311529-2.942494 42.857412-4.9152 69.924141-5.592847v-154.506541c-3.219576-0.195765-6.445176-0.439718-9.685835-0.728847l-4.352-0.415624C230.942118 753.236329 178.745224 696.277835 177.709176 627.724047L177.694118 625.694118c0-30.768188 5.773553-61.879718 17.302588-93.313506a6.023529 6.023529 0 1 1 11.309176 4.150212C195.255718 566.663529 189.741176 596.374588 189.741176 625.648941l0.015059 1.939577c0.942682 62.403765 48.489412 114.284424 110.613083 120.609129l4.276706 0.4096c4.954353 0.442729 9.911718 0.774024 14.869082 0.993882A6.023529 6.023529 0 0 1 325.270588 755.618635v166.113883a6.023529 6.023529 0 0 1-5.915106 6.023529c-28.870776 0.512-55.127341 2.514824-74.143623 5.568753-9.191906 1.475765-16.414118 3.159341-21.181741 4.9152-1.897412 0.698729-3.306918 1.376376-4.171294 1.951624v11.318211l0.189741 0.126494 0.442729 0.271059c1.3824 0.807153 3.457506 1.662494 6.156047 2.505788 5.692235 1.776941 13.787859 3.397271 23.853177 4.764612l1.873317 0.246965c20.163765 2.617224 46.905224 4.1472 76.16753 4.321882L334.305882 963.764706c31.719906 0 60.867765-1.575153 82.432-4.412235 10.652612-1.400471 19.196988-3.078024 25.148236-4.933271 2.809976-0.876424 4.954353-1.767906 6.345788-2.602165l0.521035-0.331294v-11.294117c-0.894494-0.596329-2.3552-1.289035-4.309835-2.002824-4.674259-1.701647-11.649506-3.334024-20.489035-4.773647-18.260329-2.975624-43.390494-4.972424-71.155953-5.589835l-3.550871-0.069271a6.023529 6.023529 0 0 1-5.903059-6.023529V755.621647a6.023529 6.023529 0 0 1 5.752471-6.017506c6.369882-0.283106 12.739765-0.749929 19.109647-1.397459C431.061835 741.797647 478.870588 688.871906 478.870588 625.724235l-0.006023-1.304094c-0.412612-38.887906-19.648753-94.548329-57.825883-166.634917H247.401412l-4.532706 7.752282c-7.785412 13.354165-13.537882 23.446588-17.245365 30.250165l-2.120282 3.945411a6.023529 6.023529 0 1 1-10.610447-5.698258l2.575059-4.782683c3.584-6.544565 8.842541-15.778635 15.78767-27.708235l7.505318-12.83313A6.023529 6.023529 0 0 1 243.952941 445.741176z m-216.847059 63.247059a6.023529 6.023529 0 1 1 0 12.047059 6.023529 6.023529 0 0 1 0-12.047059z" fill="#4C3030" /><path d="M617.411765 421.647059m-6.02353 0a6.023529 6.023529 0 1 0 12.047059 0 6.023529 6.023529 0 1 0-12.047059 0Z" fill="#4C3030" /></svg>