<svg class="svg-icon" style="width: 1em; height: 1em;vertical-align: middle;fill: currentColor;overflow: hidden;" viewBox="0 0 1024 1024" version="1.1" xmlns="http://www.w3.org/2000/svg"><path d="M122.088 868.224a381.344 94.504 0 1 0 762.688 0 381.344 94.504 0 1 0-762.688 0Z" fill="#B8CBCD" /><path d="M599.152 116.568c8.504-8.016 18.656-7.864 34.696-5.928 1.216-8.84 4.456-16.24 9.952-21.744 31.24-31.24 122.416 9.28 203.648 90.504 81.232 81.232 121.752 172.416 90.512 203.656-5.504 5.504-12.904 8.728-21.752 9.944 1.944 16.048 2.088 26.192-5.928 34.696l-441.232 441.232c-8.048 4.248-20.216 5.2-32.48 3.712-1.224 8.84-4.448 16.248-9.952 21.752-31.24 31.232-122.416-9.28-203.656-90.512-81.224-81.224-121.736-172.408-90.504-203.648 5.504-5.504 12.896-8.736 21.744-9.952-1.488-12.256-0.544-24.432 3.712-32.48l441.24-441.232z" fill="#B2EDA6" /><path d="M644.059386 93.585565a208.008 80 45.001 1 0 294.162601 294.172869 208.008 80 45.001 1 0-294.162601-294.172869Z" fill="#FFFFFF" /><path d="M623.96 122.512l33.664 34.224-500.08 491.936-33.664-34.216z" fill="#FFFFFF" /><path d="M144.04 593.624c-31.24 31.24 9.28 122.424 90.512 203.648 81.232 81.232 172.416 121.76 203.648 90.512L274.144 757.68 144.04 593.624z" fill="#FFFFFF" /><path d="M458.104 882.608c-53.36 0-132.896-51.24-195.272-113.616-42.84-42.832-77.152-89.408-96.616-131.12-27.88-59.752-16.68-89.344-2.376-103.64a16 16 0 1 1 22.624 22.624c-7.496 7.504-9.136 29.16 8.752 67.48 17.928 38.424 49.984 81.76 90.248 122.032 88.056 88.048 171.064 117.456 189.512 99a16 16 0 0 1 22.632 22.624c-10.112 10.088-23.656 14.616-39.504 14.616zM914.16 408.704c-51.936 0-126.856-47.416-185.24-105.8-40.64-40.64-72.864-85.168-90.744-125.384-19.976-44.936-19.888-80.768 0.232-100.888a16 16 0 1 1 22.624 22.624c-9.664 9.664-7.216 34.672 6.384 65.272 16.32 36.712 46.192 77.816 84.128 115.752 84.128 84.128 162.152 109.392 181.032 90.512a16 16 0 1 1 22.624 22.624c-10.576 10.576-24.664 15.288-41.04 15.288z" fill="#3C663E" /><path d="M823.176 297.328a63.08 63.08 0 0 1-44.896-18.6l-25.184-25.184c-24.76-24.76-24.76-65.04 0-89.8a63.072 63.072 0 0 1 44.888-18.6c16.968 0 32.912 6.608 44.904 18.608l25.184 25.176c11.992 11.992 18.6 27.936 18.6 44.896s-6.608 32.912-18.6 44.896a63.056 63.056 0 0 1-44.896 18.608z m-25.2-120.192c-8.408 0-16.312 3.28-22.264 9.224-5.944 5.952-9.224 13.856-9.224 22.272s3.28 16.32 9.224 22.272l25.184 25.184c11.904 11.888 32.64 11.888 44.544 0 5.952-5.952 9.224-13.856 9.224-22.272s-3.28-16.32-9.224-22.272l-25.184-25.176a31.304 31.304 0 0 0-22.28-9.232z" fill="#3C663E" /><path d="M800.08 284.072a39.496 39.496 0 0 1-28.096-11.632l-12.6-12.6a39.776 39.776 0 0 1 0-56.208c7.512-7.504 17.496-11.64 28.112-11.64s20.592 4.136 28.112 11.632l12.592 12.6a39.792 39.792 0 0 1-0.008 56.208 39.52 39.52 0 0 1-28.112 11.64z m-12.584-60.088a7.744 7.744 0 0 0-5.488 13.224l12.6 12.6a7.696 7.696 0 0 0 5.472 2.256 7.76 7.76 0 0 0 5.488-13.224l-12.584-12.592a7.76 7.76 0 0 0-5.488-2.264z" fill="#3C663E" /><path d="M324.792 402.24c-31.24 31.248 11.816 124.952 96.168 209.304 84.36 84.36 178.064 127.424 209.312 96.168l158.392-158.392c-31.24 31.24-124.944-11.816-209.304-96.176C495 368.8 451.936 275.104 483.184 243.848L324.792 402.24z" fill="#FFFFFF" /><path d="M601.16 733.904c-48.88 0-124.056-43.584-191.512-111.048-79.52-79.52-140.256-187.832-96.168-231.928l158.4-158.392a16 16 0 1 1 22.624 22.624c-18.896 18.896 8.544 99.064 96.168 186.68 69.856 69.856 136.512 101.672 168.88 101.664 8.168 0 14.152-1.84 17.8-5.496a16 16 0 1 1 22.624 22.624l-158.4 158.4c-9.864 9.864-23.464 14.872-40.416 14.872zM458.8 290.864L336.104 413.552c-18.888 18.896 8.552 99.064 96.168 186.68 69.856 69.848 136.52 101.672 168.888 101.672 8.16 0 14.152-1.848 17.8-5.504l122.608-122.616c-48.192-8.688-113.872-49.672-173.52-109.32-54.328-54.32-99.88-122.056-109.248-173.6z" fill="#3C663E" /><path d="M404.776 907.584a23.984 23.984 0 0 1-16.968-40.968l476-476a23.984 23.984 0 0 1 33.936 0 23.984 23.984 0 0 1 0 33.936l-476 476a23.928 23.928 0 0 1-16.968 7.032z" fill="#3C663E" /><path d="M396.832 933.648c-50.872 0-123.896-41.424-190.568-108.096-41.32-41.312-74.136-86.696-92.392-127.792-28.888-65-11.224-96.688 1.88-109.792a55.728 55.728 0 0 1 14.08-10.248c0.352-10.072 1.992-21.92 6.864-31.144 1.12-2.12 2.552-4.056 4.248-5.752L582.184 99.6c8.24-7.792 17.816-11.496 28.944-11.496 2.352 0 4.648 0.168 6.904 0.416a56.16 56.16 0 0 1 9.048-11.88c8.032-8.024 22.696-17.576 47.04-17.576 50.872 0 123.888 41.416 190.56 108.088 81.52 81.512 138.792 189.304 90.512 237.584a55.56 55.56 0 0 1-11.68 8.928c1.432 10.984 0.984 24.392-10.112 36.168l-441.736 441.744a23.792 23.792 0 0 1-5.776 4.264c-7.816 4.12-18.28 6.216-31.928 6.408a55.496 55.496 0 0 1-10.112 13.832c-8.008 8.008-22.672 17.568-47.016 17.568zM178.608 571.056c-0.792 4.232-1.304 12.888-0.32 21.064a24 24 0 0 1-20.552 26.64c-3.768 0.52-6.472 1.576-8.04 3.152-5.672 5.68-5.576 25.736 8.032 56.368 15.928 35.832 45.216 76.096 82.472 113.344 64.608 64.6 126.48 94.032 156.632 94.032 3.576 0 10.024-0.464 13.088-3.512 1.944-1.952 2.784-5.464 3.144-8.072a23.96 23.96 0 0 1 26.656-20.536c3.872 0.472 8.224 0.728 12.256 0.728 4.536 0 7.768-0.32 9.784-0.64l434.128-434.128c-0.264-1.728-0.688-3.888-1.032-5.664a182.368 182.368 0 0 1-2.2-13.232 24 24 0 0 1 20.528-26.64c3.792-0.52 6.512-1.584 8.088-3.168 13.944-13.944-9.816-88.984-90.52-169.696-64.608-64.6-126.48-94.024-156.624-94.024-3.576 0-10.024 0.456-13.088 3.512-1.568 1.568-2.632 4.28-3.16 8.04a23.944 23.944 0 0 1-26.656 20.552 204.608 204.608 0 0 1-11.904-1.872c-2.04-0.36-4.248-0.76-5.976-0.992L178.608 571.056z" fill="#3C663E" /></svg>