<svg class="svg-icon" style="width: 1em;height: 1em;vertical-align: middle;fill: currentColor;overflow: hidden;" viewBox="0 0 1024 1024" version="1.1" xmlns="http://www.w3.org/2000/svg"><path d="M176 32a15.952 15.952 0 0 1 16-16h160a15.952 15.952 0 0 1 16 16v64a15.952 15.952 0 0 1-16 16c24.304 106.464 22.544 127.44 0 224l111.184 37.056A48 48 0 0 1 496 418.592V976a32 32 0 0 1-32 32H80a32 32 0 0 1-32-32V418.592a48 48 0 0 1 32.816-45.536L192 336c-22.656-103.136-24.4-124.608 0-224a15.952 15.952 0 0 1-16-16V32z" fill="#FFFFFF" /><path d="M368 48v48a15.952 15.952 0 0 1-16 16c24.304 106.464 22.544 127.44 0 224l51.184 17.056L400 368l90.896 30.304c3.472 6.048 5.104 13.024 5.104 20.288V976a32 32 0 0 1-32 32H96V450.592a48 48 0 0 1 32.816-45.536l84.032-28a32.016 32.016 0 0 0 21.28-36.496C217.248 260.064 217.92 233.92 240 144a15.952 15.952 0 0 1-16-16V64a15.952 15.952 0 0 1 16-16h128z" fill="#FFD140" /><path d="M976 560H608c-4.976 149.472 2.16 298.784 16 448h336c14-148.32 21.2-297.424 16-448z" fill="#CBE9EA" /><path d="M48 480h448v432H48z m128-464h192v80l-16 16 16 112H176l16-112-16-16V16z" fill="#5AB947" /><path d="M361.6 96l-11.712 11.712c-4.816-0.112-8.4 0.352-7.088 4.736l6.592 26.016 8.752 61.344 0.544 6.432 0.08 17.76h-53.888c2.4-37.12 1.056-75.008-7.28-111.552H320V16h41.6v80zM448 480h48v432h-48z" fill="#4D9D3C" /><path d="M374.768 224c0.048 42.768-6.992 82.128-16 120.144l136.288 39.632V480H448v-16.8c0-18.976-17.568-36.16-34.896-43.872-22.896-10.176-55.152-24.512-79.712-35.552a47.872 47.872 0 0 1-27.456-53.456c6.736-32.8 12.656-69.184 14.944-106.32h53.888z" fill="#CCA733" /><path d="M608 656h368v240l-80 48H688l-80-48V656z" fill="#FFD140" /><path d="M796.08 811.696l-90.208-32.832-32.832 90.208 90.208 32.832 32.832-90.208z m146.736-92.672L848 704l-15.024 94.816 94.832 15.024 15.008-94.816z" fill="#FFFFFF" /><path d="M176 648a96 40 0 1 0 192 0 96 40 0 1 0-192 0Z" fill="#FFE183" /><path d="M448 912h53.456v96H448z" fill-opacity=".15" /></svg>